# xmcd CD database file
#
# Track frame offsets:
#	150
#	24007
#	49421
#	77997
#	99479
#	121298
#	142086
#	168574
#	191720
#	222922
#	252549
#	260251
#	280683
#	301228
#	326550
#
# Disc length: 4670 seconds
#
# Revision: 0
# Processed by: cddbd v1.5.2PL0 Copyright (c) Steve Scherf et al.
# Submitted via: CDex 1.70beta2
#
DISCID=d9123c0f
DTITLE=Miles Davis - 1986 -1991 The Warner Years (Disc-1)
DYEAR=2011
DGENRE=Jazz
TTITLE0=Tutu
TTITLE1=Tomaas
TTITLE2=Portia
TTITLE3=Splatch
TTITLE4=Backyard Ritual
TTITLE5=Perfect Way
TTITLE6=Don't Lose Your Mind
TTITLE7=Full Nelson
TTITLE8=Siesta - Kitt's Kiss - Lost In Madrid Part II
TTITLE9=Theme For Augustine - Wind - Seduction - Kiss
TTITLE10=Lost In Madrid Part IV - Rat Dance - The Call
TTITLE11=Claire - Lost In Madrid Part V
TTITLE12=Los Feliz
TTITLE13=Catémbe
TTITLE14=Cobra
EXTD=YEAR: 2011
EXTT0=
EXTT1=
EXTT2=
EXTT3=
EXTT4=
EXTT5=
EXTT6=
EXTT7=
EXTT8=
EXTT9=
EXTT10=
EXTT11=
EXTT12=
EXTT13=
EXTT14=
PLAYORDER=
